<mxfile host="app.diagrams.net" modified="2021-07-02T08:13:27.491Z" agent="5.0 (Windows NT 10.0; Win64; x64) AppleWebKit/537.36 (KHTML, like Gecko) Chrome/91.0.4472.114 Safari/537.36 Edg/91.0.864.59" etag="fOYznYZwnJ0qBssKrD4l" version="14.8.3" type="github">
  <diagram id="C5RBs43oDa-KdzZeNtuy" name="Page-1">
    <mxGraphModel dx="2350" dy="811" grid="1" gridSize="10" guides="1" tooltips="1" connect="1" arrows="1" fold="1" page="1" pageScale="1" pageWidth="827" pageHeight="1169" math="0" shadow="0">
      <root>
        <mxCell id="WIyWlLk6GJQsqaUBKTNV-0" />
        <mxCell id="WIyWlLk6GJQsqaUBKTNV-1" parent="WIyWlLk6GJQsqaUBKTNV-0" />
        <mxCell id="WIyWlLk6GJQsqaUBKTNV-2" value="" style="rounded=0;html=1;jettySize=auto;orthogonalLoop=1;fontSize=11;endArrow=block;endFill=0;endSize=8;strokeWidth=1;shadow=0;labelBackgroundColor=none;edgeStyle=orthogonalEdgeStyle;exitX=0.5;exitY=1;exitDx=0;exitDy=0;entryX=0.5;entryY=0;entryDx=0;entryDy=0;" parent="WIyWlLk6GJQsqaUBKTNV-1" source="Sru5nnOVfMk653cX0LRZ-0" target="Sru5nnOVfMk653cX0LRZ-2" edge="1">
          <mxGeometry relative="1" as="geometry">
            <mxPoint x="220" y="120" as="sourcePoint" />
            <mxPoint x="220" y="170" as="targetPoint" />
          </mxGeometry>
        </mxCell>
        <mxCell id="Sru5nnOVfMk653cX0LRZ-0" value="Start" style="ellipse;whiteSpace=wrap;html=1;" vertex="1" parent="WIyWlLk6GJQsqaUBKTNV-1">
          <mxGeometry x="160" y="30" width="120" height="80" as="geometry" />
        </mxCell>
        <mxCell id="Sru5nnOVfMk653cX0LRZ-5" style="edgeStyle=orthogonalEdgeStyle;rounded=0;orthogonalLoop=1;jettySize=auto;html=1;exitX=0.5;exitY=1;exitDx=0;exitDy=0;entryX=0.5;entryY=0;entryDx=0;entryDy=0;" edge="1" parent="WIyWlLk6GJQsqaUBKTNV-1" source="Sru5nnOVfMk653cX0LRZ-2" target="Sru5nnOVfMk653cX0LRZ-4">
          <mxGeometry relative="1" as="geometry" />
        </mxCell>
        <mxCell id="Sru5nnOVfMk653cX0LRZ-2" value="Create form using components from toolbox" style="rounded=0;whiteSpace=wrap;html=1;" vertex="1" parent="WIyWlLk6GJQsqaUBKTNV-1">
          <mxGeometry x="160" y="180" width="120" height="60" as="geometry" />
        </mxCell>
        <mxCell id="Sru5nnOVfMk653cX0LRZ-7" value="" style="edgeStyle=orthogonalEdgeStyle;rounded=0;orthogonalLoop=1;jettySize=auto;html=1;" edge="1" parent="WIyWlLk6GJQsqaUBKTNV-1" source="Sru5nnOVfMk653cX0LRZ-4" target="Sru5nnOVfMk653cX0LRZ-6">
          <mxGeometry relative="1" as="geometry" />
        </mxCell>
        <mxCell id="Sru5nnOVfMk653cX0LRZ-4" value="Add checked changed listener to radiobuttons&lt;br&gt;" style="rounded=0;whiteSpace=wrap;html=1;" vertex="1" parent="WIyWlLk6GJQsqaUBKTNV-1">
          <mxGeometry x="160" y="290" width="120" height="60" as="geometry" />
        </mxCell>
        <mxCell id="Sru5nnOVfMk653cX0LRZ-9" value="" style="edgeStyle=orthogonalEdgeStyle;rounded=0;orthogonalLoop=1;jettySize=auto;html=1;" edge="1" parent="WIyWlLk6GJQsqaUBKTNV-1" source="Sru5nnOVfMk653cX0LRZ-6" target="Sru5nnOVfMk653cX0LRZ-8">
          <mxGeometry relative="1" as="geometry" />
        </mxCell>
        <mxCell id="Sru5nnOVfMk653cX0LRZ-6" value="Add on click listener to the button&lt;br&gt;" style="rounded=0;whiteSpace=wrap;html=1;" vertex="1" parent="WIyWlLk6GJQsqaUBKTNV-1">
          <mxGeometry x="160" y="390" width="120" height="60" as="geometry" />
        </mxCell>
        <mxCell id="Sru5nnOVfMk653cX0LRZ-11" value="" style="edgeStyle=orthogonalEdgeStyle;rounded=0;orthogonalLoop=1;jettySize=auto;html=1;" edge="1" parent="WIyWlLk6GJQsqaUBKTNV-1" source="Sru5nnOVfMk653cX0LRZ-8" target="Sru5nnOVfMk653cX0LRZ-10">
          <mxGeometry relative="1" as="geometry" />
        </mxCell>
        <mxCell id="Sru5nnOVfMk653cX0LRZ-8" value="On click listener is used to&amp;nbsp; validate the data" style="rounded=0;whiteSpace=wrap;html=1;" vertex="1" parent="WIyWlLk6GJQsqaUBKTNV-1">
          <mxGeometry x="160" y="490" width="120" height="60" as="geometry" />
        </mxCell>
        <mxCell id="Sru5nnOVfMk653cX0LRZ-13" style="edgeStyle=orthogonalEdgeStyle;rounded=0;orthogonalLoop=1;jettySize=auto;html=1;exitX=0;exitY=0.5;exitDx=0;exitDy=0;entryX=0.5;entryY=0;entryDx=0;entryDy=0;" edge="1" parent="WIyWlLk6GJQsqaUBKTNV-1" source="Sru5nnOVfMk653cX0LRZ-10" target="Sru5nnOVfMk653cX0LRZ-12">
          <mxGeometry relative="1" as="geometry" />
        </mxCell>
        <mxCell id="Sru5nnOVfMk653cX0LRZ-19" value="" style="edgeStyle=orthogonalEdgeStyle;rounded=0;orthogonalLoop=1;jettySize=auto;html=1;" edge="1" parent="WIyWlLk6GJQsqaUBKTNV-1" source="Sru5nnOVfMk653cX0LRZ-10" target="Sru5nnOVfMk653cX0LRZ-18">
          <mxGeometry relative="1" as="geometry" />
        </mxCell>
        <mxCell id="Sru5nnOVfMk653cX0LRZ-10" value="Check if the entered data is correct using NOT null and Regex" style="rhombus;whiteSpace=wrap;html=1;" vertex="1" parent="WIyWlLk6GJQsqaUBKTNV-1">
          <mxGeometry x="102.5" y="590" width="235" height="140" as="geometry" />
        </mxCell>
        <mxCell id="Sru5nnOVfMk653cX0LRZ-17" value="" style="edgeStyle=orthogonalEdgeStyle;rounded=0;orthogonalLoop=1;jettySize=auto;html=1;" edge="1" parent="WIyWlLk6GJQsqaUBKTNV-1" source="Sru5nnOVfMk653cX0LRZ-12" target="Sru5nnOVfMk653cX0LRZ-15">
          <mxGeometry relative="1" as="geometry" />
        </mxCell>
        <mxCell id="Sru5nnOVfMk653cX0LRZ-12" value="set error variable to true and add text for error provider" style="rounded=0;whiteSpace=wrap;html=1;" vertex="1" parent="WIyWlLk6GJQsqaUBKTNV-1">
          <mxGeometry y="810" width="120" height="60" as="geometry" />
        </mxCell>
        <mxCell id="Sru5nnOVfMk653cX0LRZ-14" value="False" style="text;html=1;align=center;verticalAlign=middle;resizable=0;points=[];autosize=1;strokeColor=none;" vertex="1" parent="WIyWlLk6GJQsqaUBKTNV-1">
          <mxGeometry x="20" y="710" width="40" height="20" as="geometry" />
        </mxCell>
        <mxCell id="Sru5nnOVfMk653cX0LRZ-16" style="edgeStyle=orthogonalEdgeStyle;rounded=0;orthogonalLoop=1;jettySize=auto;html=1;entryX=-0.038;entryY=0.39;entryDx=0;entryDy=0;entryPerimeter=0;" edge="1" parent="WIyWlLk6GJQsqaUBKTNV-1" source="Sru5nnOVfMk653cX0LRZ-15" target="Sru5nnOVfMk653cX0LRZ-8">
          <mxGeometry relative="1" as="geometry">
            <mxPoint x="-100" y="500" as="targetPoint" />
            <Array as="points">
              <mxPoint x="-140" y="960" />
              <mxPoint x="-140" y="513" />
            </Array>
          </mxGeometry>
        </mxCell>
        <mxCell id="Sru5nnOVfMk653cX0LRZ-15" value="Re enter data and validate again" style="rounded=0;whiteSpace=wrap;html=1;" vertex="1" parent="WIyWlLk6GJQsqaUBKTNV-1">
          <mxGeometry y="930" width="120" height="60" as="geometry" />
        </mxCell>
        <mxCell id="Sru5nnOVfMk653cX0LRZ-22" value="" style="edgeStyle=orthogonalEdgeStyle;rounded=0;orthogonalLoop=1;jettySize=auto;html=1;" edge="1" parent="WIyWlLk6GJQsqaUBKTNV-1" source="Sru5nnOVfMk653cX0LRZ-18" target="Sru5nnOVfMk653cX0LRZ-21">
          <mxGeometry relative="1" as="geometry" />
        </mxCell>
        <mxCell id="Sru5nnOVfMk653cX0LRZ-18" value="Entered data is correct&amp;nbsp;" style="whiteSpace=wrap;html=1;" vertex="1" parent="WIyWlLk6GJQsqaUBKTNV-1">
          <mxGeometry x="410" y="770" width="120" height="60" as="geometry" />
        </mxCell>
        <mxCell id="Sru5nnOVfMk653cX0LRZ-20" value="True" style="text;html=1;align=center;verticalAlign=middle;resizable=0;points=[];autosize=1;strokeColor=none;" vertex="1" parent="WIyWlLk6GJQsqaUBKTNV-1">
          <mxGeometry x="470" y="690" width="40" height="20" as="geometry" />
        </mxCell>
        <mxCell id="Sru5nnOVfMk653cX0LRZ-24" value="" style="edgeStyle=orthogonalEdgeStyle;rounded=0;orthogonalLoop=1;jettySize=auto;html=1;" edge="1" parent="WIyWlLk6GJQsqaUBKTNV-1" source="Sru5nnOVfMk653cX0LRZ-21" target="Sru5nnOVfMk653cX0LRZ-23">
          <mxGeometry relative="1" as="geometry" />
        </mxCell>
        <mxCell id="Sru5nnOVfMk653cX0LRZ-21" value="Show the inserted data in message box" style="whiteSpace=wrap;html=1;" vertex="1" parent="WIyWlLk6GJQsqaUBKTNV-1">
          <mxGeometry x="410" y="910" width="120" height="60" as="geometry" />
        </mxCell>
        <mxCell id="Sru5nnOVfMk653cX0LRZ-23" value="Stop&lt;br&gt;" style="ellipse;whiteSpace=wrap;html=1;" vertex="1" parent="WIyWlLk6GJQsqaUBKTNV-1">
          <mxGeometry x="410" y="1050" width="120" height="60" as="geometry" />
        </mxCell>
      </root>
    </mxGraphModel>
  </diagram>
</mxfile>
